<svg xmlns="http://www.w3.org/2000/svg" viewBox="0 0 40 40">
  <defs>
    <linearGradient id="g" x1="0" y1="0" x2="40" y2="40" gradientUnits="userSpaceOnUse">
      <stop offset="0%" stop-color="#5ecbe6"/>
      <stop offset="100%" stop-color="#8b6dff"/>
    </linearGradient>
    <radialGradient id="c" cx="50%" cy="50%" r="50%">
      <stop offset="0%" stop-color="#5ecbe6"/>
      <stop offset="100%" stop-color="#5ecbe6" stop-opacity="0"/>
    </radialGradient>
  </defs>
  <rect width="40" height="40" rx="8" fill="#0a0a14"/>
  <path d="M20 5 L33 12.5 L33 27.5 L20 35 L7 27.5 L7 12.5 Z" stroke="url(#g)" stroke-width="1.6" fill="none" stroke-linejoin="round"/>
  <g stroke="url(#g)" stroke-width="1.3" stroke-linecap="round" fill="none">
    <path d="M27 13 L31 9 M31 9 L31 12 M31 9 L28 9"/>
    <path d="M13 13 L9 9 M9 9 L9 12 M9 9 L12 9"/>
    <path d="M27 27 L31 31 M31 31 L31 28 M31 31 L28 31"/>
    <path d="M13 27 L9 31 M9 31 L9 28 M9 31 L12 31"/>
  </g>
  <circle cx="20" cy="20" r="8" fill="url(#c)" opacity="0.6"/>
  <circle cx="20" cy="20" r="3.2" fill="url(#g)"/>
  <circle cx="20" cy="20" r="1.2" fill="#0a0a14"/>
</svg>
