<svg xmlns="http://www.w3.org/2000/svg" viewBox="5 5 54 54">
  <defs>
    <linearGradient id="g" x1="8" y1="4" x2="56" y2="60" gradientUnits="userSpaceOnUse">
      <stop offset="0%" stop-color="#5ecbe6"/>
      <stop offset="100%" stop-color="#8b6dff"/>
    </linearGradient>
  </defs>

  <!-- circular arc segments -->
  <path d="M 32 8 A 24 24 0 0 1 50 15" stroke="url(#g)" stroke-width="2.4" stroke-linecap="round" fill="none"/>
  <path d="M 50 49 A 24 24 0 0 1 32 56" stroke="url(#g)" stroke-width="2.4" stroke-linecap="round" fill="none"/>
  <path d="M 14 49 A 24 24 0 0 1 8 32" stroke="url(#g)" stroke-width="2.4" stroke-linecap="round" fill="none"/>
  <path d="M 56 32 A 24 24 0 0 1 50 49" stroke="url(#g)" stroke-width="2.4" stroke-linecap="round" fill="none" opacity="0.5"/>
  <path d="M 32 56 A 24 24 0 0 1 14 49" stroke="url(#g)" stroke-width="2.4" stroke-linecap="round" fill="none" opacity="0.5"/>
  <path d="M 8 32 A 24 24 0 0 1 14 15" stroke="url(#g)" stroke-width="2.4" stroke-linecap="round" fill="none" opacity="0.5"/>
  <path d="M 14 15 A 24 24 0 0 1 32 8" stroke="url(#g)" stroke-width="2.4" stroke-linecap="round" fill="none" opacity="0.35"/>
  <path d="M 50 15 A 24 24 0 0 1 56 32" stroke="url(#g)" stroke-width="2.4" stroke-linecap="round" fill="none" opacity="0.35"/>

  <!-- cardinal arrows N -->
  <line x1="32" y1="23" x2="32" y2="12" stroke="url(#g)" stroke-width="2.2" stroke-linecap="round"/>
  <polyline points="28.5,15.5 32,11 35.5,15.5" stroke="url(#g)" stroke-width="2.2" stroke-linecap="round" stroke-linejoin="round" fill="none"/>

  <!-- cardinal arrows S -->
  <line x1="32" y1="41" x2="32" y2="52" stroke="url(#g)" stroke-width="2.2" stroke-linecap="round"/>
  <polyline points="28.5,48.5 32,53 35.5,48.5" stroke="url(#g)" stroke-width="2.2" stroke-linecap="round" stroke-linejoin="round" fill="none"/>

  <!-- cardinal arrows E -->
  <line x1="41" y1="32" x2="52" y2="32" stroke="url(#g)" stroke-width="2.2" stroke-linecap="round"/>
  <polyline points="48.5,28.5 53,32 48.5,35.5" stroke="url(#g)" stroke-width="2.2" stroke-linecap="round" stroke-linejoin="round" fill="none"/>

  <!-- cardinal arrows W -->
  <line x1="23" y1="32" x2="12" y2="32" stroke="url(#g)" stroke-width="2.2" stroke-linecap="round"/>
  <polyline points="15.5,28.5 11,32 15.5,35.5" stroke="url(#g)" stroke-width="2.2" stroke-linecap="round" stroke-linejoin="round" fill="none"/>

  <!-- diagonal arrows -->
  <line x1="38" y1="26" x2="45" y2="19" stroke="url(#g)" stroke-width="1.8" stroke-linecap="round" opacity="0.7"/>
  <polyline points="41,19 45,19 45,23" stroke="url(#g)" stroke-width="1.8" stroke-linecap="round" stroke-linejoin="round" fill="none" opacity="0.7"/>

  <line x1="26" y1="26" x2="19" y2="19" stroke="url(#g)" stroke-width="1.8" stroke-linecap="round" opacity="0.7"/>
  <polyline points="19,23 19,19 23,19" stroke="url(#g)" stroke-width="1.8" stroke-linecap="round" stroke-linejoin="round" fill="none" opacity="0.7"/>

  <line x1="38" y1="38" x2="45" y2="45" stroke="url(#g)" stroke-width="1.8" stroke-linecap="round" opacity="0.7"/>
  <polyline points="45,41 45,45 41,45" stroke="url(#g)" stroke-width="1.8" stroke-linecap="round" stroke-linejoin="round" fill="none" opacity="0.7"/>

  <line x1="26" y1="38" x2="19" y2="45" stroke="url(#g)" stroke-width="1.8" stroke-linecap="round" opacity="0.7"/>
  <polyline points="23,45 19,45 19,41" stroke="url(#g)" stroke-width="1.8" stroke-linecap="round" stroke-linejoin="round" fill="none" opacity="0.7"/>

  <!-- padlock body -->
  <rect x="25.5" y="30" width="13" height="10" rx="2" fill="url(#g)" opacity="0.9"/>

  <!-- padlock shackle -->
  <path d="M 28.5 30 L28.5 26.5 A 3.5 3.5 0 0 1 35.5 26.5 L35.5 30" stroke="url(#g)" stroke-width="2.4" stroke-linecap="round" fill="none"/>

  <!-- keyhole -->
  <circle cx="32" cy="34.5" r="1.4" fill="#fff"/>
  <rect x="31.3" y="35" width="1.4" height="2.8" rx="0.5" fill="#fff"/>
</svg>
